<svg viewBox="0 0 89 15" fill="none" xmlns="http://www.w3.org/2000/svg">
    <path d="M7.455 10.005H3.285L2.595 12H0.39L4.155 1.515H6.6L10.365 12H8.145L7.455 10.005ZM6.885 8.325L5.37 3.945L3.855 8.325H6.885ZM13.8723 0.9V12H11.7723V0.9H13.8723ZM15.4071 7.815C15.4071 6.975 15.5721 6.23 15.9021 5.58C16.2421 4.93 16.6971 4.43 17.2671 4.08C17.8471 3.73 18.4921 3.555 19.2021 3.555C19.8221 3.555 20.3621 3.68 20.8221 3.93C21.2921 4.18 21.6671 4.495 21.9471 4.875V3.69H24.0621V12H21.9471V10.785C21.6771 11.175 21.3021 11.5 20.8221 11.76C20.3521 12.01 19.8071 12.135 19.1871 12.135C18.4871 12.135 17.8471 11.955 17.2671 11.595C16.6971 11.235 16.2421 10.73 15.9021 10.08C15.5721 9.42 15.4071 8.665 15.4071 7.815ZM21.9471 7.845C21.9471 7.335 21.8471 6.9 21.6471 6.54C21.4471 6.17 21.1771 5.89 20.8371 5.7C20.4971 5.5 20.1321 5.4 19.7421 5.4C19.3521 5.4 18.9921 5.495 18.6621 5.685C18.3321 5.875 18.0621 6.155 17.8521 6.525C17.6521 6.885 17.5521 7.315 17.5521 7.815C17.5521 8.315 17.6521 8.755 17.8521 9.135C18.0621 9.505 18.3321 9.79 18.6621 9.99C19.0021 10.19 19.3621 10.29 19.7421 10.29C20.1321 10.29 20.4971 10.195 20.8371 10.005C21.1771 9.805 21.4471 9.525 21.6471 9.165C21.8471 8.795 21.9471 8.355 21.9471 7.845ZM30.7181 3.57C31.7081 3.57 32.5081 3.885 33.1181 4.515C33.7281 5.135 34.0331 6.005 34.0331 7.125V12H31.9331V7.41C31.9331 6.75 31.7681 6.245 31.4381 5.895C31.1081 5.535 30.6581 5.355 30.0881 5.355C29.5081 5.355 29.0481 5.535 28.7081 5.895C28.3781 6.245 28.2131 6.75 28.2131 7.41V12H26.1131V3.69H28.2131V4.725C28.4931 4.365 28.8481 4.085 29.2781 3.885C29.7181 3.675 30.1981 3.57 30.7181 3.57ZM37.0951 2.7C36.7251 2.7 36.4151 2.585 36.1651 2.355C35.9251 2.115 35.8051 1.82 35.8051 1.47C35.8051 1.12 35.9251 0.829999 36.1651 0.599999C36.4151 0.359999 36.7251 0.239999 37.0951 0.239999C37.4651 0.239999 37.7701 0.359999 38.0101 0.599999C38.2601 0.829999 38.3851 1.12 38.3851 1.47C38.3851 1.82 38.2601 2.115 38.0101 2.355C37.7701 2.585 37.4651 2.7 37.0951 2.7ZM38.1301 3.69V12H36.0301V3.69H38.1301ZM41.1349 12.105C40.7549 12.105 40.4399 11.99 40.1899 11.76C39.9499 11.52 39.8299 11.225 39.8299 10.875C39.8299 10.525 39.9499 10.235 40.1899 10.005C40.4399 9.765 40.7549 9.645 41.1349 9.645C41.5049 9.645 41.8099 9.765 42.0499 10.005C42.2899 10.235 42.4099 10.525 42.4099 10.875C42.4099 11.225 42.2899 11.52 42.0499 11.76C41.8099 11.99 41.5049 12.105 41.1349 12.105ZM43.5614 7.815C43.5614 6.975 43.7264 6.23 44.0564 5.58C44.3964 4.93 44.8564 4.43 45.4364 4.08C46.0164 3.73 46.6614 3.555 47.3714 3.555C47.9114 3.555 48.4264 3.675 48.9164 3.915C49.4064 4.145 49.7964 4.455 50.0864 4.845V0.9H52.2164V12H50.0864V10.77C49.8264 11.18 49.4614 11.51 48.9914 11.76C48.5214 12.01 47.9764 12.135 47.3564 12.135C46.6564 12.135 46.0164 11.955 45.4364 11.595C44.8564 11.235 44.3964 10.73 44.0564 10.08C43.7264 9.42 43.5614 8.665 43.5614 7.815ZM50.1014 7.845C50.1014 7.335 50.0014 6.9 49.8014 6.54C49.6014 6.17 49.3314 5.89 48.9914 5.7C48.6514 5.5 48.2864 5.4 47.8964 5.4C47.5064 5.4 47.1464 5.495 46.8164 5.685C46.4864 5.875 46.2164 6.155 46.0064 6.525C45.8064 6.885 45.7064 7.315 45.7064 7.815C45.7064 8.315 45.8064 8.755 46.0064 9.135C46.2164 9.505 46.4864 9.79 46.8164 9.99C47.1564 10.19 47.5164 10.29 47.8964 10.29C48.2864 10.29 48.6514 10.195 48.9914 10.005C49.3314 9.805 49.6014 9.525 49.8014 9.165C50.0014 8.795 50.1014 8.355 50.1014 7.845ZM61.9924 7.665C61.9924 7.965 61.9724 8.235 61.9324 8.475H55.8574C55.9074 9.075 56.1174 9.545 56.4874 9.885C56.8574 10.225 57.3124 10.395 57.8524 10.395C58.6324 10.395 59.1874 10.06 59.5174 9.39H61.7824C61.5424 10.19 61.0824 10.85 60.4024 11.37C59.7224 11.88 58.8874 12.135 57.8974 12.135C57.0974 12.135 56.3774 11.96 55.7374 11.61C55.1074 11.25 54.6124 10.745 54.2524 10.095C53.9024 9.445 53.7274 8.695 53.7274 7.845C53.7274 6.985 53.9024 6.23 54.2524 5.58C54.6024 4.93 55.0924 4.43 55.7224 4.08C56.3524 3.73 57.0774 3.555 57.8974 3.555C58.6874 3.555 59.3924 3.725 60.0124 4.065C60.6424 4.405 61.1274 4.89 61.4674 5.52C61.8174 6.14 61.9924 6.855 61.9924 7.665ZM59.8174 7.065C59.8074 6.525 59.6124 6.095 59.2324 5.775C58.8524 5.445 58.3874 5.28 57.8374 5.28C57.3174 5.28 56.8774 5.44 56.5174 5.76C56.1674 6.07 55.9524 6.505 55.8724 7.065H59.8174ZM66.9902 10.065L69.0902 3.69H71.3252L68.2502 12H65.7002L62.6402 3.69H64.8902L66.9902 10.065Z" fill="#E4E6EB" />
    <line x1="71" y1="14" x2="89" y2="14" stroke="#2374E1" stroke-width="2" />
</svg>